<svg id="Layer_1" data-name="Layer 1" xmlns="http://www.w3.org/2000/svg" xmlns:xlink="http://www.w3.org/1999/xlink" viewBox="0 0 594.9 241.22"><defs><style>.cls-1{fill:url(#linear-gradient);}.cls-2{fill:url(#linear-gradient-2);}.cls-3{fill:url(#linear-gradient-3);}.cls-4{fill:#fff;}</style><linearGradient id="linear-gradient" x1="-247.76" y1="-361.17" x2="-246.76" y2="-360.67" gradientTransform="matrix(125, 0, 0, -120.8, 30993.62, -43525.32)" gradientUnits="userSpaceOnUse"><stop offset="0" stop-color="#1600ff"/><stop offset="0.45" stop-color="#3545ff"/><stop offset="1" stop-color="#22d3ee"/></linearGradient><linearGradient id="linear-gradient-2" x1="-247.37" y1="-372.02" x2="-246.37" y2="-371.32" gradientTransform="matrix(104, 0, 0, -62, 25774.07, -22916.06)" gradientUnits="userSpaceOnUse"><stop offset="0" stop-color="#211bff"/><stop offset="1" stop-color="#8e57ff"/></linearGradient><linearGradient id="linear-gradient-3" x1="-247.91" y1="-361.22" x2="-246.91" y2="-361.72" gradientTransform="matrix(125, 0, 0, -115.25, 30993.62, -41489.5)" gradientUnits="userSpaceOnUse"><stop offset="0" stop-color="#b45bff"/><stop offset="0.5" stop-color="#5734ff"/><stop offset="1" stop-color="#4742ff"/></linearGradient></defs><g id="Logo_Ribbon_Vector" data-name="Logo Ribbon Vector"><path class="cls-1" d="M145.64,15.88q0-3-3-1l-101,42q-21,9-21,31v27q0,14,17,20-7-7-2-15,3-8,16-13l80-33q14-5,14-20Z"/><path class="cls-2" d="M37.64,132.88l104-42v27q0,11-10,16l-46,19Z"/><path class="cls-3" d="M20.64,111.88q0,16,18,23l93,36q14,5,14,21v33q0,3-3,2l-104-35q-18-6-18-24Z"/></g><g id="ELVA_Wordmark_Vector" data-name="ELVA Wordmark Vector"><path class="cls-4" d="M191.64,77.61h80c1.33,0,2,1,2,3v11a1.77,1.77,0,0,1-2,2h-60v17h47a2.65,2.65,0,0,1,3,3v12a2.65,2.65,0,0,1-3,3h-47v17h61a2.65,2.65,0,0,1,3,3v12a2.65,2.65,0,0,1-3,3h-81q-7,0-7-7v-72Q184.64,77.6,191.64,77.61Z"/><path class="cls-4" d="M295.64,77.61h22a2.65,2.65,0,0,1,3,3v65h53c1.33,0,2,1,2,3v12a2.65,2.65,0,0,1-3,3h-76a2.65,2.65,0,0,1-3-3v-80C293.64,78.61,294.31,77.61,295.64,77.61Z"/><path class="cls-4" d="M361.64,77.61h28l33,62,32-62h28l-47,86h-26Z"/><path class="cls-4" d="M462.64,163.61l47-84c.67-1.33,2-2,4-2h26q2,0,3,3l44,83h-28l-32-63-35,63Z"/></g></svg>